# xmcd
#
# Track frame offsets:
#	150
#	26375
#	45442
#	64084
#	81018
#	95389
#	116696
#	132825
#	150919
#	172301
#	196937
#	216074
#	244700
#	260267
#
# Disc length: 3712 seconds
#
# Revision: 0
# Processed by: cddbd v1.5.2PL0 Copyright (c) Steve Scherf et al.
# Submitted via: EasyCDDAExtractor 15.3.0.1
#
DISCID=b00e7e0e
DTITLE=Alejandro Fernandez - Confidencias Reales
DYEAR=2014
DGENRE=Latin
TTITLE0=Concavo Y Convexo
TTITLE1=Se Me Va La Voz
TTITLE2=Estuve
TTITLE3=Te Amare
TTITLE4=Me Hace Tanto Bien
TTITLE5=Hoy Tengo Ganas De Ti
TTITLE6=Te Quiero, Te Quiero
TTITLE7=No Me Digas Que Te Vas
TTITLE8=No Se Olvidar
TTITLE9=Si Tu Supieras
TTITLE10=Hoy Decidi Olvidarte
TTITLE11=Abrazame
TTITLE12=No
TTITLE13=Nube Viajera
EXTD=
EXTT0=
EXTT1=
EXTT2=
EXTT3=
EXTT4=
EXTT5=
EXTT6=
EXTT7=
EXTT8=
EXTT9=
EXTT10=
EXTT11=
EXTT12=
EXTT13=
PLAYORDER=
